<?xml version="1.0" encoding="UTF-8"?>
<svg id="Layer_2" data-name="Layer 2" xmlns="http://www.w3.org/2000/svg" viewBox="0 0 559.68 97.03">
  <defs>
    <style>
      .cls-1 {
        fill: #333;
      }

      .cls-2 {
        fill: #4c75f2;
      }
    </style>
  </defs>
  <g id="Outline">
    <g>
      <g id="Group_3541" data-name="Group 3541">
        <path id="Path_1" data-name="Path 1" class="cls-1" d="M202.32,79.51h-61.82v-11.05l46.59-53.83-.25-.63c-6.47.13-14.22.38-21.32.38h-23.61V3.34h60.17v10.9l-46.6,53.97.25.64c6.47-.13,14.09-.39,20.55-.39h26.02l.03,11.05Z"/>
        <path id="Path_2" data-name="Path 2" class="cls-1" d="M212.47,1.69h12.58v9.39h-12.58V1.69ZM213.24,20.22h10.9v59.29h-10.9V20.22Z"/>
        <path id="Path_3" data-name="Path 3" class="cls-1" d="M270.37,81.03c-13.07,0-19.93-7.24-22.34-19.17h-.13v35.17h-11.04V20.22h11.04v17.39h.25c2.54-11.81,9.52-18.92,22.09-18.92,16,0,24.37,11.93,24.37,30.98s-8.88,31.36-24.25,31.36M283.7,49.67c0-13.33-5.59-20.95-17.52-20.95-11.17,0-18.28,7.36-18.28,20.55v.88c0,12.7,7.13,20.95,18.28,20.95s17.52-7.87,17.52-21.46"/>
        <path id="Path_4" data-name="Path 4" class="cls-1" d="M306.8,29.74h-8.76v-9.52h8.76V3.86h11.05v16.36h18.92v9.52h-18.92v30.59c0,6.61,2.54,10.03,9.14,10.03,3.06-.07,6.1-.58,9.02-1.52l1.39,10.15c-4.08,1.4-8.38,2.09-12.7,2.03-12.44,0-17.9-8.12-17.9-19.17V29.74Z"/>
        <path id="Path_5" data-name="Path 5" class="cls-1" d="M340.44,50.31c0-19.8,12.06-31.61,30.09-31.61s27.17,11.3,27.17,27.55c0,1.9,0,4.32-.25,7.1h-45.96c1.14,11.55,7.87,17.9,19.17,17.9,8,.84,15.31-4.55,16.88-12.44l9.78,2.94c-3.05,11.68-11.55,19.17-26.66,19.17-18.29,0-30.2-11.17-30.2-30.59M351.76,44.73h35.54c-.76-10.54-6.22-16.5-17.14-16.5-9.47-.68-17.7,6.45-18.38,15.93-.01.19-.02.38-.03.58"/>
        <path id="Path_6" data-name="Path 6" class="cls-1" d="M443.66,64.4h-.13c-1.92,9.92-10.86,16.9-20.95,16.36-11.55,0-19.04-5.59-19.04-16.78,0-10.41,6.6-18.15,20.94-18.15h19.18v-3.17c0-9.27-3.56-14.35-12.96-14.35-8.51,0-13.2,3.93-14.85,13.71l-10.54-1.52c2.03-13.84,10.15-21.58,25.77-21.58,16.5,0,23.61,8.39,23.61,23.61v36.97h-11.04v-15.1ZM443.66,57.42v-2.79h-17.65c-7.49,0-11.55,2.79-11.55,8,0,4.57,2.94,8.88,11.55,8.88,10.9,0,17.65-5.97,17.65-14.09"/>
        <path id="Path_7" data-name="Path 7" class="cls-1" d="M476.66,79.5h-11.05V20.22h11.05v16h.13c2.54-12.06,10.28-17.52,20.69-17.52,13.58,0,19.29,7.87,20.44,18.54h.13c2.16-12.7,9.14-18.54,20.69-18.54,15.61,0,20.95,10.16,20.95,22.85v37.95h-11.04v-35.16c0-8.12-3.43-15.61-14.22-15.61-10.15,0-16.25,5.71-16.25,15.61v35.16h-11.05v-35.16c0-8.12-3.43-15.61-14.22-15.61-10.15,0-16.25,5.71-16.25,15.61v35.16Z"/>
      </g>
      <g id="Group_3544" data-name="Group 3544">
        <path id="Path_9" data-name="Path 9" class="cls-2" d="M7.15,84.12c-1.13,0-2.25-.27-3.25-.81-2.59-1.54-4.1-4.4-3.89-7.41V8.2C-.19,5.19,1.31,2.32,3.91.79c2.72-1.31,5.94-.97,8.32.87l49.67,33.13c4.02,2.3,5.41,7.43,3.1,11.45-.74,1.29-1.81,2.36-3.1,3.1L12.23,82.48c-1.49,1.05-3.25,1.63-5.07,1.68M8.48,9.33v65.43l48.73-32.48c.11-.07.2-.15.3-.23-.09-.09-.19-.16-.3-.23L8.48,9.33Z"/>
        <path id="Path_10" data-name="Path 10" class="cls-2" d="M55.03,79.3c-2.34,0-4.23-1.89-4.23-4.23,0-1.27.57-2.48,1.56-3.29l35.37-28.74c.34-.22.56-.58.6-.98-.05-.4-.27-.76-.6-.99L52.36,12.33c-1.78-1.51-2-4.18-.49-5.96,1.47-1.73,4.03-1.99,5.82-.6l35.37,28.74c4.17,3.2,4.96,9.17,1.76,13.34-.51.66-1.1,1.25-1.76,1.76l-35.37,28.75c-.75.61-1.69.95-2.66.95"/>
      </g>
    </g>
  </g>
</svg>